# xmcd
#
# Track frame offsets:
#	150
#	14987
#	27959
#	45731
#	53973
#	73110
#	87510
#	102770
#	116821
#	140376
#	153220
#	162740
#
# Disc length: 2334 seconds
#
# Revision: 0
# Processed by: cddbd v1.5.2PL0 Copyright (c) Steve Scherf et al.
# Submitted via: audiograbber 1.83.01
#
DISCID=ab091c0c
DTITLE=Reinhard Mey - Mein Achtel Lorbeerblatt
DYEAR=1900
DGENRE=
TTITLE0=Musikanten Sind In Der Stadt
TTITLE1=Manchmal Wünscht´ Ich Mir
TTITLE2=Annabelle Ach Annabelle
TTITLE3=Alles Was Ich Habe
TTITLE4=Schade, Daß Du Gehen Mußt
TTITLE5=Die Heiße Schlacht Am Kalten Büffet
TTITLE6=Mein Achtel Lorbeerblatt
TTITLE7=Herbstgewitter Über Dächern
TTITLE8=In Tyrannis
TTITLE9=Bevor Ich Mit Den Wölfen Heule
TTITLE10=Ich Wolltei Immer Schon Ein Mannequin Sein
TTITLE11=Gute Nacht Freunde
EXTD=
EXTT0=
EXTT1=
EXTT2=
EXTT3=
EXTT4=
EXTT5=
EXTT6=
EXTT7=
EXTT8=
EXTT9=
EXTT10=
EXTT11=
PLAYORDER=
